<?xml version="1.0" encoding="UTF-8"?>
<svg id="Calque_2" data-name="Calque 2" xmlns="http://www.w3.org/2000/svg" viewBox="0 0 386.31 166.13">
  <defs>
    <style>
      .cls-1 {
        fill: #2196f3;
      }

      .cls-1, .cls-2 {
        stroke-width: 0px;
      }

      .cls-2 {
        fill: #4bb39a;
      }
    </style>
  </defs>
  <g id="Calque_1-2" data-name="Calque 1">
    <g>
      <path class="cls-1" d="M10.99,131.05v26.07c0,3-2.5,5.49-5.49,5.49s-5.49-2.5-5.49-5.49v-54.14c0-3,2.5-5.49,5.49-5.49s5.49,2.5,5.49,5.49v26.07l29.97-29.96c2.1-2.1,5.59-2.2,7.79,0,2.2,2.2,2.1,5.69,0,7.79l-23.37,23.17,23.37,23.17c2.1,2.1,2.2,5.59,0,7.79-2.2,2.2-5.69,2.1-7.79,0l-29.97-29.96Z"/>
      <path class="cls-1" d="M105.67,133.95c-.9-1-1.5-2.3-1.5-3.7,0-3,2.5-5.49,5.49-5.49h11.29c4.89,0,7.99-3.5,7.99-7.89s-3.1-7.99-7.99-7.99h-22.47v48.24c0,3-2.5,5.49-5.49,5.49s-5.49-2.5-5.49-5.49v-53.34c0-3,2.5-5.49,5.49-5.49h28.07c10.89,0,18.88,8.29,18.88,18.58s-7.69,18.28-18.48,18.38l16.58,18.28c2,2.2,1.9,5.69-.4,7.69-2.2,2-5.69,1.8-7.69-.4l-24.27-26.87Z"/>
    </g>
    <g>
      <path class="cls-2" d="M285.9.93c-.54.8-13.23,19.8-8.56,41.02,2.76,12.57,11.01,23.16,24.51,31.46l2.69,1.66,1.76-2.59c8.82-12.97,11.88-25.93,9.12-38.5-4.67-21.22-24.23-33.47-25.06-33.98"/>
      <path class="cls-2" d="M289.64,7.33c5.22,3.97,16.29,13.83,19.4,27.98,2.2,9.99.03,20.39-6.44,30.96-10.33-7.04-16.68-15.64-18.88-25.61-3.13-14.12,2.83-27.61,5.92-33.34"/>
      <path class="cls-2" d="M172.31,159.72l5.13-4.26c-2.86-5.91-4.83-12.28-5.8-18.93-2.56-17.48,2-34.89,12.86-49.02,6.03-7.85,13.55-14.14,22.35-18.71l-3.06-5.61c-9.65,5.01-17.9,11.91-24.5,20.51-11.9,15.49-16.91,34.57-14.1,53.74,1.16,7.88,3.58,15.38,7.13,22.29Z"/>
      <path class="cls-2" d="M242.54,78.69c7.37,5.46,18.32,10.87,32.76,10.87,5.3,0,11.08-.73,17.32-2.46,15.19,19.48,18.19,45.97,7.35,68.32l5.12,4.26c15.83-30.74,7.34-69.16-21.83-90.5-15.87-11.61-35.43-16.5-55.07-13.75l-4.55.63,2.12,3.98c.22.42,5.61,10.38,16.78,18.65ZM279.35,74.26c3.12,2.28,5.98,4.78,8.58,7.46-15.37,3.53-29.24.87-41.26-7.96-5.86-4.3-10.01-9.21-12.46-12.58,16.17-1.07,32.03,3.49,45.14,13.07Z"/>
    </g>
    <path class="cls-1" d="M254.46,106c0-3,2.5-5.49,5.49-5.49s5.49,2.5,5.49,5.49v35.26c0,14.28-10.99,24.87-24.97,24.87s-24.97-10.59-24.97-24.87v-35.26c0-3,2.5-5.49,5.49-5.49s5.49,2.5,5.49,5.49v35.46c0,8.19,6.49,14.08,13.98,14.08s13.98-5.89,13.98-14.08v-35.46Z"/>
    <path class="cls-1" d="M347.86,141.02v16.48c0,3-2.5,5.49-5.49,5.49s-5.49-2.5-5.49-5.49v-53.34c0-3,2.5-5.49,5.49-5.49h22.77c11.69,0,21.18,9.49,21.18,21.18s-9.49,21.18-21.18,21.18h-17.28ZM364.94,130.43c6.09,0,10.39-4.69,10.39-10.59s-4.3-10.59-10.39-10.59h-17.08v21.18h17.08Z"/>
  </g>
</svg>